HIERARCHY
ROOT root
{
	OFFSET	0	13.1	24.9
	CHANNELS 6  Xposition Yposition Zposition Xrotation Yrotation Zrotation
	JOINT spine_1
	{
		OFFSET	0	9.99999	0
		CHANNELS 3  Xrotation Yrotation Zrotation
		JOINT spine_2
		{
			OFFSET	0	112	-10
			CHANNELS 3  Xrotation Yrotation Zrotation
			JOINT spine_3
			{
				OFFSET	0	206.5	19.3
				CHANNELS 3  Xrotation Yrotation Zrotation
				JOINT spine_4
				{
					OFFSET	0	110.4	14.6
					CHANNELS 3  Xrotation Yrotation Zrotation
					JOINT neck_1
					{
						OFFSET	0	71.8	-50.3
						CHANNELS 3  Xrotation Yrotation Zrotation
						JOINT neck_2
						{
							OFFSET	0	86.2	-25.8
							CHANNELS 3  Xrotation Yrotation Zrotation
							JOINT head_ee
							{
								OFFSET	0	179.8	-8.7
								CHANNELS 3  Xrotation Yrotation Zrotation
								End Site
								{
									OFFSET	1	0	0
								}
							}
						}
					}
					JOINT left_clavicle
					{
						OFFSET	-43.2	22.4	-70.8
						CHANNELS 3  Xrotation Yrotation Zrotation
						JOINT left_shoulder
						{
							OFFSET	-93.9	-5.79999	48.7
							CHANNELS 3  Xrotation Yrotation Zrotation
							JOINT left_elbow
							{
								OFFSET	-291.4	-30.8	15.2
								CHANNELS 3  Xrotation Yrotation Zrotation
								JOINT left_lowarm_twist
								{
									OFFSET	-110.7	-3.89999	13.6
									CHANNELS 3  Xrotation Yrotation Zrotation
									JOINT left_hand
									{
										OFFSET	-110.7	-3.89999	13.6
										CHANNELS 3  Xrotation Yrotation Zrotation
										JOINT left_ee
										{
											OFFSET	-80.8	-5.10001	12.1
											CHANNELS 3  Xrotation Yrotation Zrotation
											End Site
											{
												OFFSET	1	0	0
											}
										}
									}
								}
							}
						}
					}
					JOINT right_clavicle
					{
						OFFSET	43.2	22.4	-70.8
						CHANNELS 3  Xrotation Yrotation Zrotation
						JOINT right_shoulder
						{
							OFFSET	93.9	-5.79999	48.7
							CHANNELS 3  Xrotation Yrotation Zrotation
							JOINT right_elbow
							{
								OFFSET	291.4	-30.8	15.2
								CHANNELS 3  Xrotation Yrotation Zrotation
								JOINT right_lowarm_twist
								{
									OFFSET	110.7	-3.89999	13.6
									CHANNELS 3  Xrotation Yrotation Zrotation
									JOINT right_hand
									{
										OFFSET	110.7	-3.89999	13.6
										CHANNELS 3  Xrotation Yrotation Zrotation
										JOINT right_ee
										{
											OFFSET	80.8	-5.10001	12.1
											CHANNELS 3  Xrotation Yrotation Zrotation
											End Site
											{
												OFFSET	1	0	0
											}
										}
									}
								}
							}
						}
					}
				}
			}
		}
	}
	JOINT left_hip
	{
		OFFSET	-82.8	-127.5	0.300001
		CHANNELS 3  Xrotation Yrotation Zrotation
		JOINT left_knee
		{
			OFFSET	-28.2	-396.7	2.2
			CHANNELS 3  Xrotation Yrotation Zrotation
			JOINT left_ankle
			{
				OFFSET	-11.7	-411.3	35.4
				CHANNELS 3  Xrotation Yrotation Zrotation
				JOINT left_toes
				{
					OFFSET	0	-60	-88.6
					CHANNELS 3  Xrotation Yrotation Zrotation
					JOINT left_foot_ee
					{
						OFFSET	-22.5	-16.5	-42.2
						CHANNELS 3  Xrotation Yrotation Zrotation
						End Site
						{
							OFFSET	1	0	0
						}
					}
				}
			}
		}
	}
	JOINT right_hip
	{
		OFFSET	82.8	-127.5	0.300001
		CHANNELS 3  Xrotation Yrotation Zrotation
		JOINT right_knee
		{
			OFFSET	28.2	-396.7	2.2
			CHANNELS 3  Xrotation Yrotation Zrotation
			JOINT right_ankle
			{
				OFFSET	11.7	-411.3	35.4
				CHANNELS 3  Xrotation Yrotation Zrotation
				JOINT right_toes
				{
					OFFSET	0	-60	-88.6
					CHANNELS 3  Xrotation Yrotation Zrotation
					JOINT right_foot_ee
					{
						OFFSET	22.5	-16.5	-42.2
						CHANNELS 3  Xrotation Yrotation Zrotation
						End Site
						{
							OFFSET	1	0	0
						}
					}
				}
			}
		}
	}
}
MOTION
Frames: 10
Frame Time: 0.02
3177.02 653.055 -1669.29 -4.52234009097 17.6709380269 -0.731861962567 0.938068 0.537383 1.86094 0.939898 0.417899 1.89135 0.954386 0.0434051 1.93647 0.949322 0.348633 1.90533 5.82641 2.40643 -2.16659 5.89974 6.00762 -2.40446 -0.0 0.0 -0.0 1.504 13.1876 4.03297 -17.6419 19.8201 72.7712 0.433271 -12.1138 0.0459739 31.9376 0.00241394 -4.02745 0.317834 2.9341 3.33685 -0.0 0.0 -0.0 11.7535 27.2909 -22.6688 26.9685 -19.1468 -58.4264 1.65312 39.3111 -0.59049 74.5698 3.22783 8.27452 5.15463 -23.8574 -43.9493 0.0 0.0 0.0 30.7368 -17.6338 0.314901 2.51158 -0.111545 -0.369215 24.9561 11.2373 -3.33621 -19.9166 0.0 0.0 -0.0 0.0 -0.0 4.63248 -40.0148 13.9132 -15.8494 -0.321972 -2.40321 36.0552 15.5996 4.8188 26.6461 -0.0 -0.0 0.0 0.0 0.0 
3134.43997711 651.246 -1707.58587141 -5.44630739742 16.9504451511 0.30987241694 1.27726 0.192515 1.24625 1.27811 0.112829 1.25597 1.28074 -0.125663 1.25475 1.27855 0.0740626 1.25885 5.49313 4.16807 -3.1891 5.67874 9.91623 -3.49551 -0.0 0.0 -0.0 1.13327 12.8697 3.39407 -12.1815 23.0565 75.7279 0.26503 -7.47965 0.0173238 34.3001 -0.0864502 -4.31603 -0.0676017 1.76314 0.292147 -0.0 0.0 -0.0 10.3225 27.6933 -19.3957 20.8335 -20.5424 -57.9871 1.56628 37.8047 -0.536357 75.3811 3.31702 8.32826 5.5384 -24.8442 -47.4275 0.0 0.0 0.0 33.1905 -22.564 2.78673 -4.58442 0.16142 0.684866 38.9297 10.8213 -4.78763 -17.3179 0.0 0.0 -0.0 0.0 -0.0 4.7867 -40.1161 15.0048 -15.938 -0.321891 -2.4168 37.6487 12.5299 4.87973 28.9178 -0.0 -0.0 0.0 0.0 0.0 
3126.2977423 653.175 -1732.66676138 -4.90178416134 14.7084630785 0.49553273757 1.25553 0.347663 1.32598 1.25647 0.262591 1.34541 1.26288 0.00419248 1.37078 1.26032 0.220609 1.35292 5.25658 5.22707 -2.9276 5.47943 11.5059 -3.13083 -0.0 0.0 -0.0 1.90456 12.9465 4.67688 -10.3767 21.1209 72.7277 0.28731 -8.1004 0.0203437 36.6762 -0.187766 -4.60237 -0.204567 3.34864 0.0526139 -0.0 0.0 -0.0 9.71637 27.6584 -18.0467 14.4618 -16.7717 -61.734 1.51674 36.9168 -0.506296 77.1284 3.51162 8.43968 5.68235 -24.4428 -48.7442 0.0 0.0 0.0 34.3067 -17.3451 1.27074 -12.8543 0.312329 1.94383 38.8643 8.66228 -4.76724 -15.6107 0.0 0.0 -0.0 0.0 -0.0 3.47036 -38.9933 15.1216 -16.6081 -0.320602 -2.51961 33.6564 15.6526 4.57909 31.0003 -0.0 -0.0 0.0 0.0 0.0 
3125.57943581 653.175 -1732.08514046 -4.91677856559 15.3584415245 0.553339780442 1.25553 0.347663 1.32598 1.25647 0.262591 1.34541 1.26288 0.00419248 1.37078 1.26032 0.220609 1.35292 5.25658 5.22707 -2.9276 5.47943 11.5059 -3.13083 -0.0 0.0 -0.0 1.90456 12.9465 4.67688 -10.3767 21.1209 72.7277 0.28731 -8.1004 0.0203437 36.6762 -0.187766 -4.60237 -0.204567 3.34864 0.0526139 -0.0 0.0 -0.0 9.71637 27.6584 -18.0467 14.4618 -16.7717 -61.734 1.51674 36.9168 -0.506296 77.1284 3.51162 8.43968 5.68235 -24.4428 -48.7442 0.0 0.0 0.0 34.3067 -17.3451 1.27074 -12.8543 0.312329 1.94383 38.8643 8.66228 -4.76724 -15.6107 0.0 0.0 -0.0 0.0 -0.0 3.47036 -38.9933 15.1216 -16.6081 -0.320602 -2.51961 33.6564 15.6526 4.57909 31.0003 -0.0 -0.0 0.0 0.0 0.0 
3109.72163628 656.048 -1756.44483191 -4.45186584521 15.6783818216 1.04695945708 1.26884 0.276231 1.22206 1.26965 0.197914 1.23716 1.27411 -0.0386813 1.25229 1.27196 0.159564 1.24268 5.05078 5.39492 -3.27075 5.30023 12.1021 -3.49999 -0.0 0.0 -0.0 2.2191 11.183 5.08675 -8.80534 21.2881 72.1093 0.219111 -6.19486 0.0118568 37.4164 -0.221745 -4.69069 -0.181416 0.696244 -0.915999 -0.0 0.0 -0.0 9.4387 27.3208 -17.4672 9.2167 -17.2514 -62.8489 1.5281 37.1224 -0.513138 76.8719 3.48285 8.42369 5.37977 -26.5039 -46.0892 0.0 0.0 0.0 34.1249 -17.2726 1.59488 -17.2325 0.318318 2.61538 39.0364 8.87142 -4.78378 -13.4445 0.0 0.0 -0.0 0.0 -0.0 2.5825 -37.3852 14.9043 -19.6796 -0.299314 -2.99033 34.2778 11.2193 4.5211 30.7343 -0.0 -0.0 0.0 0.0 0.0 
3081.67313446 662.188 -1797.96759773 -2.13956643486 17.176648223 1.09321158053 1.61333 0.189456 0.774043 1.61365 0.139819 0.784529 1.61561 -0.00572466 0.796869 1.61474 0.120194 0.787774 2.42262 5.17943 -3.59491 2.63693 12.1052 -3.60136 -0.0 0.0 -0.0 3.04047 10.1943 6.43895 -11.7495 21.0849 71.4733 0.211595 -5.98391 0.0110594 37.1809 -0.21081 -4.66264 0.0525894 -2.42871 -0.673481 -0.0 0.0 -0.0 9.43831 26.3202 -17.5763 1.79819 -16.0449 -64.0257 1.49252 36.475 -0.491821 77.6374 3.56894 8.47102 5.31282 -26.4024 -45.5013 0.0 0.0 0.0 32.5778 -16.5335 2.80437 -25.1969 0.197873 3.83057 39.664 7.81298 -4.83436 -8.61883 0.0 0.0 -0.0 0.0 -0.0 0.979288 -23.6063 13.2271 -32.2233 0.0474917 -4.88031 33.1258 1.31843 4.24529 35.1168 -0.0 -0.0 0.0 0.0 0.0 
3079.9125328 662.188 -1796.64418619 -2.14890213222 17.9640725373 1.12413637537 1.61333 0.189456 0.774043 1.61365 0.139819 0.784529 1.61561 -0.00572466 0.796869 1.61474 0.120194 0.787774 2.42262 5.17943 -3.59491 2.63693 12.1052 -3.60136 -0.0 0.0 -0.0 3.04047 10.1943 6.43895 -11.7495 21.0849 71.4733 0.211595 -5.98391 0.0110594 37.1809 -0.21081 -4.66264 0.0525894 -2.42871 -0.673481 -0.0 0.0 -0.0 9.43831 26.3202 -17.5763 1.79819 -16.0449 -64.0257 1.49252 36.475 -0.491821 77.6374 3.56894 8.47102 5.31282 -26.4024 -45.5013 0.0 0.0 0.0 32.5778 -16.5335 2.80437 -25.1969 0.197873 3.83057 39.664 7.81298 -4.83436 -8.61883 0.0 0.0 -0.0 0.0 -0.0 0.979288 -23.6063 13.2271 -32.2233 0.0474917 -4.88031 33.1258 1.31843 4.24529 35.1168 -0.0 -0.0 0.0 0.0 0.0 
3079.037011 662.188 -1795.97181713 -2.15376542187 18.3587264283 1.13973900995 1.61333 0.189456 0.774043 1.61365 0.139819 0.784529 1.61561 -0.00572466 0.796869 1.61474 0.120194 0.787774 2.42262 5.17943 -3.59491 2.63693 12.1052 -3.60136 -0.0 0.0 -0.0 3.04047 10.1943 6.43895 -11.7495 21.0849 71.4733 0.211595 -5.98391 0.0110594 37.1809 -0.21081 -4.66264 0.0525894 -2.42871 -0.673481 -0.0 0.0 -0.0 9.43831 26.3202 -17.5763 1.79819 -16.0449 -64.0257 1.49252 36.475 -0.491821 77.6374 3.56894 8.47102 5.31282 -26.4024 -45.5013 0.0 0.0 0.0 32.5778 -16.5335 2.80437 -25.1969 0.197873 3.83057 39.664 7.81298 -4.83436 -8.61883 0.0 0.0 -0.0 0.0 -0.0 0.979288 -23.6063 13.2271 -32.2233 0.0474917 -4.88031 33.1258 1.31843 4.24529 35.1168 -0.0 -0.0 0.0 0.0 0.0 
3070.81685346 660.846 -1812.07419551 -1.38244565848 20.3657695776 1.45638838474 1.33899 -0.0934988 0.550557 1.33915 -0.128342 0.543492 1.33792 -0.22787 0.509834 1.33759 -0.144493 0.539423 3.43433 5.09735 -3.56043 3.65924 11.9016 -3.67634 -0.0 0.0 -0.0 2.64294 7.4234 5.59033 -8.10766 24.3305 72.557 0.215173 -6.08435 0.0114356 37.6693 -0.23362 -4.72078 -0.28961 -2.15886 -2.85682 -0.0 0.0 -0.0 8.54323 23.4425 -15.8756 0.771325 -14.7294 -64.8369 1.51677 36.9173 -0.506313 76.6047 3.45294 8.4069 5.5443 -25.5101 -47.5186 0.0 0.0 0.0 31.5868 -21.6376 4.83586 -25.6049 0.187164 3.89227 40.7889 9.92092 -4.94447 -8.77886 0.0 0.0 -0.0 0.0 -0.0 1.99758 -19.4181 12.5553 -41.16 0.542208 -6.15989 38.3788 6.37488 4.81117 32.4635 -0.0 -0.0 0.0 0.0 0.0 
3069.3292341 660.846 -1810.95557014 -1.38790983506 20.9648815292 1.47187143299 1.33899 -0.0934988 0.550557 1.33915 -0.128342 0.543492 1.33792 -0.22787 0.509834 1.33759 -0.144493 0.539423 3.43433 5.09735 -3.56043 3.65924 11.9016 -3.67634 -0.0 0.0 -0.0 2.64294 7.4234 5.59033 -8.10766 24.3305 72.557 0.215173 -6.08435 0.0114356 37.6693 -0.23362 -4.72078 -0.28961 -2.15886 -2.85682 -0.0 0.0 -0.0 8.54323 23.4425 -15.8756 0.771325 -14.7294 -64.8369 1.51677 36.9173 -0.506313 76.6047 3.45294 8.4069 5.5443 -25.5101 -47.5186 0.0 0.0 0.0 31.5868 -21.6376 4.83586 -25.6049 0.187164 3.89227 40.7889 9.92092 -4.94447 -8.77886 0.0 0.0 -0.0 0.0 -0.0 1.99758 -19.4181 12.5553 -41.16 0.542208 -6.15989 38.3788 6.37488 4.81117 32.4635 -0.0 -0.0 0.0 0.0 0.0 
